# xmcd
#
# Track frame offsets:
#	150
#	17750
#	32072
#	46252
#	59827
#	78457
#	95020
#	106897
#	119032
#	129377
#	156070
#	180135
#	194770
#	207980
#	224020
#	241262
#	252012
#	309565
#	323520
#	337760
#
# Disc length: 4789 seconds
#
# Revision: 0
# Processed by: cddbd v1.5.1PL2 Copyright (c) Steve Scherf et al.
# Submitted via: EasyCDDAExtractor 9.1.0.1
#
DISCID=1912b314
DTITLE=Various Artist - Piosenki Bogdana Loebla
DYEAR=1900
DGENRE=
TTITLE0=Wojciech Korda i Niebiesko-Czarni - Przyszedł do mnie blues
TTITLE1=Stanisław Guzek (Stan Borys) i Blackout - Anna
TTITLE2=Maciej Kassowski - To ty Mario
TTITLE3=Breakout - Za siódmą górą
TTITLE4=Mira Kubasińska i Breakout - Wyspa
TTITLE5=Stanisław Guzek (Stan Borys) i Blackout - Studnia bez wody
TTITLE6=Tadeusz Woźniak - To będzie syn
TTITLE7=Ada Rusowicz i Niebiesko - Czarni - Gdzie niesiesz swe dwadzieścia lat
TTITLE8=Maciej Kossowski - Pokaż mi droge
TTITLE9=Mira Kubasińska i Breakout - Do kogo idziesz
TTITLE10=Breakout - Zapraszamy na korridę
TTITLE11=Edward Hulewicz i Partita - Nie pytaj
TTITLE12=Tadeusz Woźniak - Ile zapragnę
TTITLE13=Mira Kubasińska i Blackout - Spokojnie śpij
TTITLE14=Stanisław Guzek (Stan Borys) i Blackout - Odejść stąd
TTITLE15=Ala Eksztajn - Mój płacz ukoi wiatr
TTITLE16=Mira Kubasińska i Breakout - Wielki ogień
TTITLE17=Czerwone Gitary - Jesień idzie przez park
TTITLE18=Maciej Kossowski - Nie mówię żegnaj
TTITLE19=Czerwone Gitary - Takiej miłosci
EXTD=
EXTT0=
EXTT1=
EXTT2=
EXTT3=
EXTT4=
EXTT5=
EXTT6=
EXTT7=
EXTT8=
EXTT9=
EXTT10=
EXTT11=
EXTT12=
EXTT13=
EXTT14=
EXTT15=
EXTT16=
EXTT17=
EXTT18=
EXTT19=
PLAYORDER=
